<?xml version="1.0" standalone="no"?>
<!DOCTYPE svg PUBLIC "-//W3C//DTD SVG 20010904//EN"
 "http://www.w3.org/TR/2001/REC-SVG-20010904/DTD/svg10.dtd">
<svg version="1.0" xmlns="http://www.w3.org/2000/svg"
 width="700.000000pt" height="700.000000pt" viewBox="0 0 700.000000 700.000000"
 preserveAspectRatio="xMidYMid meet">
<metadata>
Created by potrace 1.14, written by Peter Selinger 2001-2017
</metadata>
<g transform="translate(0.000000,700.000000) scale(0.100000,-0.100000)"
fill="#000000" stroke="none">
<path d="M1090 6228 c-36 -3 -78 -9 -95 -13 -16 -3 -46 -9 -65 -12 -83 -13
-274 -94 -375 -159 -185 -118 -350 -305 -439 -499 -35 -75 -79 -205 -91 -270
-5 -22 -10 -49 -13 -60 -3 -11 -6 -744 -8 -1630 -3 -1748 -5 -1686 51 -1865
99 -313 319 -571 612 -719 89 -44 218 -87 328 -107 95 -17 210 -18 2485 -18
1312 0 2417 4 2455 8 374 39 725 274 912 609 53 95 88 185 121 310 l27 102 0
1630 c0 897 -3 1648 -7 1670 -31 171 -68 278 -141 411 -93 169 -252 337 -405
429 -9 6 -19 13 -22 17 -12 16 -200 97 -280 121 -176 53 -69 51 -2610 51
-1306 1 -2404 -2 -2440 -6z m3670 -1643 c49 -8 149 -47 154 -61 2 -6 -18 -57
-45 -113 l-49 -101 -37 20 c-45 23 -130 32 -179 18 -76 -21 -127 -92 -140
-196 -2 -20 -7 -49 -10 -64 l-6 -28 172 0 c94 0 169 -3 167 -7 -3 -5 -8 -37
-11 -73 -4 -36 -9 -74 -11 -85 -2 -11 -4 -30 -4 -42 -1 -23 -2 -23 -166 -23
l-165 0 -1 -25 c-1 -14 -2 -28 -3 -32 -1 -5 -6 -42 -10 -83 -5 -41 -10 -84
-12 -95 -2 -11 -6 -47 -9 -80 -3 -33 -8 -67 -10 -75 -2 -8 -6 -46 -10 -83 -3
-37 -8 -78 -10 -89 -3 -12 -7 -44 -10 -72 -3 -28 -10 -82 -15 -121 -5 -38 -12
-95 -15 -125 -11 -103 -16 -135 -30 -193 -46 -182 -171 -306 -346 -343 -48
-10 -195 -4 -247 10 -57 16 -118 48 -115 62 1 5 22 53 47 106 l45 97 43 -21
c48 -23 139 -30 178 -14 86 37 115 90 134 246 16 127 37 299 40 330 6 50 26
210 31 240 2 14 6 50 9 80 3 30 8 64 10 75 2 11 7 51 11 89 4 38 9 80 11 93 4
23 3 23 -95 23 l-99 0 3 28 c2 15 6 54 10 87 3 33 8 72 11 88 l6 27 96 0 97 0
17 111 c21 131 56 212 122 281 74 77 161 123 259 134 28 4 53 7 55 9 4 3 89
-3 132 -10z m-1657 -144 c9 -21 29 -67 45 -102 17 -35 46 -100 65 -144 19 -44
47 -107 62 -140 15 -33 35 -78 44 -100 21 -46 120 -268 166 -370 121 -266 315
-709 312 -711 -2 -2 -389 -3 -860 -2 l-856 3 279 630 c154 347 284 639 289
650 32 69 73 162 106 238 l37 87 148 0 148 0 15 -39z"/>
<path d="M2805 3877 c-71 -166 -172 -404 -225 -528 l-96 -226 452 0 453 0 -13
31 c-84 200 -210 497 -221 521 -19 45 -65 151 -140 330 -38 88 -71 163 -74
167 -4 4 -65 -128 -136 -295z"/>
</g>
</svg>
